# xmcd CD database file
#
# Track frame offsets:
#	150
#	17721
#	34321
#	60283
#	73899
#	92658
#	118201
#	133893
#	167791
#	190501
#	205678
#	231878
#	248309
#
# Disc length: 3651 seconds
#
# Revision: 0
# Processed by: cddbd v1.5.2PL0 Copyright (c) Steve Scherf et al.
# Submitted via: CDex 1.81
#
DISCID=ad0e410d
DTITLE=relax jazz - relax jazz [Disc 1]
DYEAR=2000
DGENRE=Jazz
TTITLE0=Where Were You - Louis Van Dijk Trio
TTITLE1=September Song - Walter Lang Trio
TTITLE2=Gee Baby, Ain't I Good To You - Junior Mance Trio
TTITLE3=More Than You Know - Louis Van Dijk Trio
TTITLE4=Cleopatra's Dream - Eric Reed Trio
TTITLE5=You Must Believe In Spring - Karel Boehlee Trio
TTITLE6=Country - Walter Lang Trio
TTITLE7=Ghost Of A Chance - Dominick Farinacci
TTITLE8=Cool Struttin' - Eric Reed Trio
TTITLE9=Here's That Rainy Day - Louis Van Dijk Trio
TTITLE10=Tea For Two - Eric Reed Trio
TTITLE11=Look Behind The Mountain - Karel Boehlee Trio
TTITLE12=Stella By Starlight - Llew Matthews Trio
EXTD=YEAR: 2000
EXTT0=
EXTT1=
EXTT2=
EXTT3=
EXTT4=
EXTT5=
EXTT6=
EXTT7=
EXTT8=
EXTT9=
EXTT10=
EXTT11=
EXTT12=
PLAYORDER=
